<?xml version="1.0" standalone="no"?>
<!DOCTYPE svg PUBLIC "-//W3C//DTD SVG 20010904//EN"
 "http://www.w3.org/TR/2001/REC-SVG-20010904/DTD/svg10.dtd">
<svg version="1.0" xmlns="http://www.w3.org/2000/svg"
 width="700.000000pt" height="700.000000pt" viewBox="0 0 700.000000 700.000000"
 preserveAspectRatio="xMidYMid meet">
<metadata>
Created by potrace 1.14, written by Peter Selinger 2001-2017
</metadata>
<g transform="translate(0.000000,700.000000) scale(0.100000,-0.100000)"
fill="#000000" stroke="none">
<path d="M1487 5998 c-134 -13 -246 -91 -308 -217 l-25 -52 -1 -2247 c-1
-1320 3 -2274 8 -2311 14 -98 68 -177 164 -238 107 -68 -85 -63 2303 -63
l2162 0 0 2571 0 2570 -2112 -2 c-1162 -2 -2148 -6 -2191 -11z m3523 -1218 l0
-200 -290 0 -290 0 0 -1235 0 -1235 -200 0 -200 0 0 -200 0 -200 -540 0 -540
0 0 200 0 200 -201 0 -200 0 3 202 3 203 203 2 202 3 0 -206 0 -205 530 3
c292 1 531 5 531 8 4 17 3 2450 -1 2451 -7 2 -662 8 -867 9 l-163 0 0 200 0
200 1010 0 1010 0 0 -200z"/>
</g>
</svg>
