<?xml version="1.0" standalone="no"?>
<!DOCTYPE svg PUBLIC "-//W3C//DTD SVG 20010904//EN"
 "http://www.w3.org/TR/2001/REC-SVG-20010904/DTD/svg10.dtd">
<svg version="1.0" xmlns="http://www.w3.org/2000/svg"
 width="700.000000pt" height="700.000000pt" viewBox="0 0 700.000000 700.000000"
 preserveAspectRatio="xMidYMid meet">
<metadata>
Created by potrace 1.14, written by Peter Selinger 2001-2017
</metadata>
<g transform="translate(0.000000,700.000000) scale(0.100000,-0.100000)"
fill="#000000" stroke="none">
<path d="M1430 5994 c-106 -28 -195 -102 -247 -204 l-28 -55 -3 -2265 c-2
-1634 0 -2279 8 -2317 25 -114 125 -221 247 -262 l62 -21 2161 0 2160 0 0
2570 0 2570 -2152 -1 c-1862 0 -2160 -2 -2208 -15z m3580 -1214 l0 -200 -290
0 -290 0 0 -1235 0 -1235 -200 0 -200 0 0 -200 0 -200 -540 0 -540 0 0 200 0
200 -200 0 -200 0 2 203 3 202 203 3 202 2 0 -205 0 -205 533 2 532 3 0 1230
0 1230 -517 3 -518 2 0 200 0 200 1010 0 1010 0 0 -200z"/>
</g>
</svg>
